<svg xmlns="http://www.w3.org/2000/svg" width="140" height="105" fill="none" viewBox="0 0 158 110"><g clip-path="url(#clip0_1:201)"><path fill="#D7F0DF" d="M82.5453 107.52H30.6712V43.5759C30.6712 38.1864 35.0452 33.823 40.436 33.823H82.5453V107.52Z"/><path fill="#fff" d="M66.2724 45.2048L56.6082 31.8237L61.4429 13.0849L75.7195 9.23984C75.7195 9.23984 78.8226 5.76499 83.6044 13.0849C88.3914 20.4049 88.8892 26.3602 88.8892 26.3602V40.3972V48.1878L82.5506 57.1209L70.8635 58.623L66.2724 45.2048Z"/><path fill="#94CDBB" d="M66.2724 43.0099C66.2724 43.0099 82.1905 45.4852 84.7482 43.0099L77.9224 65.6308L72.7487 60.4529L66.2724 43.0099Z"/><path stroke="#231F20" stroke-linecap="round" stroke-miterlimit="10" d="M68.2688 31.4747C68.2688 31.4747 67.5645 37.2397 66.2777 36.7848"/><path stroke="#231F20" stroke-miterlimit="10" d="M84.6635 35.764C84.6635 35.764 81.931 34.8015 82.6777 31.8185"/><path stroke="#231F20" stroke-linecap="round" stroke-miterlimit="10" d="M66.2724 25.3712C66.2724 25.3712 66.2671 35.7535 77.7105 35.7693C77.7105 35.7693 85.659 34.061 84.6634 20.6587"/><path fill="#003443" d="M97.2401 34.8808C97.0442 35.3198 96.986 36.3776 96.9754 37.3772C96.9701 38.3556 96.0434 39.0644 95.0955 38.8211C90.8803 37.7315 82.6671 36.404 82.6353 33.3734C82.6247 32.5219 82.8154 31.6968 83.1066 30.8929C84.3246 27.5344 84.8806 23.9326 84.7429 20.3626C84.7005 19.2783 84.5576 18.1042 83.8056 17.3214C83.3078 16.7978 82.6035 16.5175 82.0899 16.015C81.4438 15.3856 81.1685 14.4812 80.7766 13.672C80.1412 12.3551 79.135 11.2285 77.9224 10.414C77.1228 9.87982 76.0107 10.1707 75.6718 11.0645C75.2799 12.0853 74.2156 12.9686 73.0929 13.196C72.3251 13.3547 71.5467 13.3282 70.7682 13.2277C72.1927 15.3486 70.3128 19.5269 69.0366 21.3146C68.6289 21.8911 68.2211 22.4729 67.8452 23.0811L67.6122 23.4619C67.6122 23.4619 67.6122 23.4619 66.892 25.1967C66.1718 26.9315 67.9405 31.0886 67.9405 31.0886C67.9405 31.0886 67.9405 31.0886 68.2264 33.0508C68.5177 35.013 66.892 36.9276 66.892 36.9276L65.6317 37.2449L61.3847 36.2189L61.3371 35.7693C59.1289 35.6001 55.851 36.5785 55.851 36.5785C51.89 37.6258 48.2838 41.2963 47.4312 42.2166C47.283 42.37 47.1135 42.4916 46.9123 42.5762C46.3139 42.8248 44.9795 43.2585 43.7456 42.8248C42.0881 42.2483 43.412 41.9997 43.2478 38.8581C43.1208 36.4569 46.6687 37.7791 47.6325 35.5683C48.5803 33.3999 44.6935 31.1362 47.5954 28.3595C48.2785 27.7089 49.2529 27.1272 49.2741 26.1857C49.2899 25.5034 48.7816 24.9428 48.4744 24.3293C46.8011 20.9602 52.9067 18.4162 54.5271 15.9727C56.4653 13.0479 56.8465 9.39852 58.6417 6.35737C59.0018 5.75442 59.4148 5.13561 60.0397 4.8077C60.8605 4.37929 61.856 4.53796 62.7827 4.60672C67.3792 4.94521 71.7267 2.73442 75.8307 0.639988C76.5244 0.285627 77.2763 -0.079312 78.0548 0.0158894C78.6373 0.089935 79.1562 0.412562 79.6646 0.708745C83.9009 3.17869 90.0966 2.25312 90.9915 8.63162C91.5581 12.6354 89.1328 17.5647 93.1944 19.95C94.9896 21.0078 95.8421 23.1551 95.2385 25.1491C95.0478 25.7679 94.926 26.4026 95.1537 27.2276C95.5986 28.8514 97.9444 29.3803 98.3734 31.1415C98.6858 32.4373 97.775 33.6643 97.2401 34.8808Z"/><path fill="#79DDB2" d="M66.2724 36.7848C66.2724 36.7848 53.6005 30.8294 44.3758 46.0458L21.2983 90.891C21.2983 90.891 22.0449 91.6737 45.1542 91.9012L90.3773 89.6481L127.652 90.3938L100.815 41.5026C100.815 41.5026 97.2402 34.8808 84.6635 35.7693L77.9224 51.3083H74.4751L66.2724 36.7848Z"/><path fill="#fff" stroke="#003443" stroke-miterlimit="10" d="M18.068 105.039C18.068 105.039 14.9596 94.6144 23.2258 89.6533L77.9224 95.8573L110.95 90.0659L127.652 90.3991C127.652 90.3991 135.357 101.072 127.652 105.044H18.068V105.039Z"/><path stroke="#003443" stroke-miterlimit="10" d="M72.7488 65.2924L64.2602 54.1379L61.5542 35.7852C61.5542 35.7852 62.3009 35.5472 66.2724 36.7848L75.5077 53.1647L76.7998 60.1145L77.9171 51.303L84.6582 35.764L86.6228 35.7852L88.884 50.5361L82.2964 61.9762"/><path fill="#0B4A5E" d="M110.225 105.039H45.6202C44.9318 105.039 44.3758 104.484 44.3758 103.796C44.3758 103.109 44.9318 102.553 45.6202 102.553H110.225C110.913 102.553 111.469 103.109 111.469 103.796C111.469 104.484 110.913 105.039 110.225 105.039Z"/><path fill="#0B4A5E" d="M108.022 100.697H45.8638L42.0616 53.4926C41.9663 52.3132 42.8983 51.3083 44.0792 51.3083H111.76C112.941 51.3083 113.868 52.3079 113.778 53.4821L108.022 100.697Z"/><path fill="#FFF9FA" stroke="#003443" stroke-miterlimit="10" d="M110.007 102.553H45.6467L41.8445 55.3491C41.7492 54.1696 42.6812 53.1647 43.8621 53.1647H111.543C112.724 53.1647 113.651 54.1643 113.561 55.3385L110.007 102.553Z"/><path stroke="#0B4A5E" stroke-miterlimit="10" d="M79.1933 81.3338C81.1147 81.3338 82.6724 79.7781 82.6724 77.859C82.6724 75.9398 81.1147 74.3841 79.1933 74.3841C77.2718 74.3841 75.7142 75.9398 75.7142 77.859C75.7142 79.7781 77.2718 81.3338 79.1933 81.3338Z"/><path stroke="#003443" stroke-miterlimit="10" d="M30.6712 42.7825V70.6712"/><path stroke="#79DDB2" stroke-miterlimit="10" d="M115.359 47.8441L113.379 43.4229C113.379 43.4229 105.678 44.2758 104.525 36.7727C104.436 36.2077 104.415 35.6321 104.415 35.0566V24.3515C104.415 24.3515 104.646 17.6071 111.985 17.0263C119.319 16.4456 143.427 15.284 143.427 15.284C143.427 15.284 149.316 14.63 150.877 20.1814C151.17 21.2278 151.233 22.3318 151.133 23.4149L149.95 36.3385C149.95 36.3385 150.065 43.2032 141.332 43.5485L122.232 43.4334L115.359 47.8441Z"/><path fill="#6EB699" d="M142.175 33.2147H113.41C110.964 33.2147 108.984 31.2369 108.984 28.7935C108.984 26.35 110.964 24.3723 113.41 24.3723H142.175C144.622 24.3723 146.602 26.35 146.602 28.7935C146.597 31.2369 144.617 33.2147 142.175 33.2147Z" opacity=".4"/><path fill="#F1F1F2" d="M142.175 32.2049H113.41C110.964 32.2049 108.984 30.2271 108.984 27.7837C108.984 25.3402 110.964 23.3624 113.41 23.3624H142.175C144.622 23.3624 146.602 25.3402 146.602 27.7837C146.597 30.2271 144.617 32.2049 142.175 32.2049Z"/><path fill="#EA5E60" d="M135.36 29.9027H145.282C145.926 29.9027 146.45 30.4992 146.45 31.2317V34.5542C146.45 37.1598 144.59 39.2684 142.301 39.2684H138.341C136.046 39.2684 134.192 37.1546 134.192 34.5542V31.2317C134.187 30.494 134.71 29.9027 135.36 29.9027Z"/><path stroke="#6EB699" stroke-linecap="round" stroke-miterlimit="10" d="M147.267 13.3009V9.00006"/><path stroke="#6EB699" stroke-linecap="round" stroke-miterlimit="10" d="M150.06 14.1172L152.391 10.3918"/><path stroke="#6EB699" stroke-linecap="round" stroke-miterlimit="10" d="M152.391 16.3618L155.885 14.1486"/><path stroke="#6EB699" stroke-linecap="round" stroke-miterlimit="10" d="M153.203 19.4644H157.163"/><path fill="#fff" d="M140.918 35.4124L141.301 37.8192H139.336L139.713 35.4124C139.336 35.1979 139.079 34.8002 139.079 34.3345C139.079 33.6596 139.629 33.1102 140.31 33.1102C140.992 33.1102 141.542 33.6596 141.542 34.3345C141.552 34.8002 141.295 35.1979 140.918 35.4124Z"/><path fill="#003443" d="M118.447 27.724C118.447 27.8927 118.311 28.0295 118.147 28.0295H116.93L117.791 28.8916C117.91 29.0102 117.91 29.2018 117.791 29.3203C117.732 29.3796 117.654 29.407 117.577 29.407C117.5 29.407 117.422 29.3751 117.363 29.3203L116.502 28.4583V29.6761C116.502 29.8403 116.365 29.9772 116.201 29.9772C116.032 29.9772 115.896 29.8403 115.896 29.6761V28.4583L115.034 29.3203C114.916 29.4389 114.725 29.4389 114.606 29.3203C114.488 29.2018 114.488 29.0102 114.606 28.8916L115.467 28.0295H114.251C114.082 28.0295 113.945 27.8927 113.945 27.724C113.945 27.5597 114.082 27.4229 114.251 27.4229H115.467L114.606 26.5609C114.488 26.4423 114.488 26.2507 114.606 26.1321C114.725 26.0135 114.916 26.0135 115.034 26.1321L115.896 26.9942V25.7763C115.896 25.6121 116.032 25.4753 116.201 25.4753C116.365 25.4753 116.502 25.6121 116.502 25.7763V26.9942L117.363 26.1321C117.481 26.0135 117.673 26.0135 117.791 26.1321C117.85 26.1914 117.878 26.2689 117.878 26.3465C117.878 26.424 117.846 26.5016 117.791 26.5609L116.93 27.4229H118.147C118.311 27.4229 118.447 27.5552 118.447 27.724Z"/><path fill="#003443" d="M125.65 27.724C125.65 27.8927 125.514 28.0295 125.345 28.0295H124.128L124.99 28.8916C125.108 29.0102 125.108 29.2018 124.99 29.3203C124.93 29.3796 124.853 29.407 124.775 29.407C124.698 29.407 124.621 29.3751 124.561 29.3203L123.7 28.4583V29.6761C123.7 29.8403 123.563 29.9772 123.395 29.9772C123.231 29.9772 123.094 29.8403 123.094 29.6761V28.4583L122.233 29.3203C122.114 29.4389 121.923 29.4389 121.805 29.3203C121.686 29.2018 121.686 29.0102 121.805 28.8916L122.666 28.0295H121.449C121.285 28.0295 121.148 27.8927 121.148 27.724C121.148 27.5597 121.285 27.4229 121.449 27.4229H122.666L121.805 26.5609C121.686 26.4423 121.686 26.2507 121.805 26.1321C121.923 26.0135 122.114 26.0135 122.233 26.1321L123.094 26.9942V25.7763C123.094 25.6121 123.231 25.4753 123.395 25.4753C123.563 25.4753 123.7 25.6121 123.7 25.7763V26.9942L124.561 26.1321C124.68 26.0135 124.871 26.0135 124.99 26.1321C125.049 26.1914 125.076 26.2689 125.076 26.3465C125.076 26.424 125.044 26.5016 124.99 26.5609L124.128 27.4229H125.345C125.514 27.4229 125.65 27.5552 125.65 27.724Z"/><path fill="#003443" d="M132.853 27.724C132.853 27.8927 132.689 28.0295 132.487 28.0295H131.027L132.06 28.8916C132.203 29.0102 132.203 29.2018 132.06 29.3203C131.989 29.3796 131.896 29.407 131.803 29.407C131.71 29.407 131.617 29.3751 131.546 29.3203L130.513 28.4583V29.6761C130.513 29.8403 130.349 29.9772 130.147 29.9772C129.95 29.9772 129.786 29.8403 129.786 29.6761V28.4583L128.752 29.3203C128.61 29.4389 128.381 29.4389 128.238 29.3203C128.096 29.2018 128.096 29.0102 128.238 28.8916L129.272 28.0295H127.812C127.615 28.0295 127.451 27.8927 127.451 27.724C127.451 27.5597 127.615 27.4229 127.812 27.4229H129.272L128.238 26.5609C128.096 26.4423 128.096 26.2507 128.238 26.1321C128.381 26.0135 128.61 26.0135 128.752 26.1321L129.786 26.9942V25.7763C129.786 25.6121 129.95 25.4753 130.147 25.4753C130.349 25.4753 130.513 25.6121 130.513 25.7763V26.9942L131.546 26.1321C131.689 26.0135 131.918 26.0135 132.06 26.1321C132.131 26.1914 132.164 26.2689 132.164 26.3465C132.164 26.424 132.126 26.5016 132.06 26.5609L131.027 27.4229H132.487C132.695 27.4229 132.853 27.5552 132.853 27.724Z"/><path stroke="#EA5E60" stroke-miterlimit="10" d="M137.288 26.4443V30.3057H143.307V26.4443C143.307 24.9008 141.961 23.6503 140.3 23.6503C138.76 23.6555 137.288 24.8537 137.288 26.4443Z"/><path fill="#79DDB2" d="M148.256 110H2.48356C1.11204 110 0 108.889 0 107.519C0 106.15 1.11204 105.039 2.48356 105.039H148.256C149.628 105.039 150.74 106.15 150.74 107.519C150.745 108.889 149.633 110 148.256 110Z"/></g><defs><clipPath id="clip0_1:201"><rect width="158" height="110" fill="#fff"/></clipPath></defs></svg>