<svg xmlns="http://www.w3.org/2000/svg" width="140" height="105" fill="none" viewBox="0 0 180 105"><g clip-path="url(#clip0_1:36)"><path fill="#142148" d="M123.624 42.821H36.6494V104.457H123.624V42.821Z"/><path fill="#F1F2F2" stroke="#95D2BB" stroke-miterlimit="10" stroke-width=".5" d="M135.919 12.1897V15.4175C135.919 16.8935 135.325 18.2316 134.347 19.1886C133.377 20.1618 132.041 20.7538 130.558 20.7538C127.73 20.7538 125.425 18.5803 125.213 15.823L135.919 12.1897Z"/><path fill="#6EB69A" d="M132.09 21.0296H115.997V6.4073C115.997 3.45528 118.401 1.07095 121.359 1.07095C122.842 1.07095 124.186 1.67109 125.156 2.63617C126.117 3.59315 126.712 4.90696 126.728 6.36675V6.41541V15.6932C126.728 15.7419 126.728 15.7905 126.728 15.8311V16.1149L126.745 16.1068C126.956 18.8561 129.271 21.0296 132.09 21.0296Z"/><path fill="#F1F1F1" stroke="#95D2BB" stroke-miterlimit="10" stroke-width=".5" d="M121.367 1.07095C121.253 1.07095 121.139 1.07095 121.033 1.08717C120.959 1.09528 120.886 1.09528 120.821 1.10339C120.739 1.1115 120.666 1.11961 120.593 1.13583C120.544 1.14394 120.503 1.15205 120.454 1.16016C120.397 1.16827 120.34 1.18449 120.283 1.1926C120.201 1.20882 120.12 1.22504 120.039 1.24937C119.924 1.28181 119.81 1.31425 119.696 1.3548C119.639 1.37102 119.582 1.39535 119.525 1.41157C119.468 1.42779 119.411 1.45212 119.362 1.47645C119.281 1.50889 119.207 1.54133 119.134 1.57377C119.069 1.60621 119.004 1.63054 118.938 1.67109C118.922 1.6792 118.898 1.68731 118.881 1.70353C118.824 1.73597 118.767 1.76841 118.71 1.80085C118.482 1.93061 118.27 2.06848 118.067 2.23068C118.01 2.27934 117.944 2.328 117.896 2.36855C117.83 2.42532 117.773 2.47398 117.708 2.53075C117.643 2.58751 117.586 2.64428 117.529 2.70105C117.366 2.86325 117.219 3.03356 117.081 3.22009C117.016 3.30119 116.958 3.38229 116.901 3.46339C116.722 3.73913 116.567 4.02298 116.429 4.32305C116.396 4.39603 116.364 4.47713 116.331 4.55012C116.241 4.78531 116.168 5.0205 116.111 5.2638C116.095 5.35301 116.078 5.43411 116.062 5.51521C116.03 5.68552 116.005 5.85583 115.997 6.02614V80.9297H44.3006V9.39988C44.3006 4.80153 48.0488 1.07095 52.6688 1.07095H121.367Z"/><path fill="#013443" d="M107.197 8.70242H52.7747V11.5571H107.197V8.70242Z"/><path fill="#013443" d="M102.984 17.0557H52.7747V19.9104H102.984V17.0557Z"/><path fill="#013443" d="M100.336 25.4008H52.7747V28.2555H100.336V25.4008Z"/><path fill="#013443" d="M107.197 33.7541H52.7747V36.6088H107.197V33.7541Z"/><path fill="#013443" d="M103.318 42.2046H73.8135V45.0593H103.318V42.2046Z"/><path fill="#DBE7EC" d="M116.021 45.4V80.8891H44.3006V42.3101L66.7082 60.8656C67.9468 61.8956 69.5683 62.2849 71.1572 62.0578C71.6216 61.9929 72.0942 61.9686 72.5668 61.9767L87.8366 62.4065C88.3663 62.4228 88.8878 62.4876 89.4011 62.6012C90.9819 62.9418 92.6441 62.6336 93.9478 61.6685L116.021 45.4Z"/><path fill="#A8DDE5" d="M69.3483 68.3673L68.7535 69.0324L41.7583 98.8202L36.6494 104.457V42.821L69.3483 68.3673Z"/><path fill="#A8DDE5" d="M123.624 42.821L90.9167 68.3673L123.624 104.457V42.821Z"/><path fill="#0B4A5D" d="M68.7535 69.0324L41.7583 98.8202L36.6494 99.9394V88.991C50.1429 79.3644 65.2823 68.2052 68.7372 67.9619L68.7535 69.0324Z"/><path fill="#0B4A5D" d="M91.5196 69.0323L118.515 98.8202L123.624 99.9394V88.9909C110.13 79.3644 94.9989 68.2051 91.5359 67.9699L91.5196 69.0323Z"/><path fill="#89CFDA" d="M123.624 104.457H36.6494L36.6657 96.3467L66.6349 69.2838C68.2075 67.8645 70.2527 67.0779 72.3794 67.0779H87.6574C89.7515 67.0779 91.7641 67.8402 93.3286 69.227L123.705 96.0709L123.624 104.457Z"/><path fill="#0B4A5D" d="M117.838 104.457C126.087 104.457 132.774 97.8011 132.774 89.5911C132.774 81.3811 126.087 74.7255 117.838 74.7255C109.59 74.7255 102.903 81.3811 102.903 89.5911C102.903 97.8011 109.59 104.457 117.838 104.457Z" opacity=".19"/><path fill="#EC5F61" d="M122.344 104.457C130.593 104.457 137.28 97.8011 137.28 89.5911C137.28 81.3811 130.593 74.7255 122.344 74.7255C114.096 74.7255 107.409 81.3811 107.409 89.5911C107.409 97.8011 114.096 104.457 122.344 104.457Z"/><path stroke="#fff" stroke-linecap="round" stroke-miterlimit="10" stroke-width="2" d="M114.701 89.6641L121.171 95.2843L129.979 83.8979"/><path fill="#072731" d="M20.7277 87.7583C19.6766 87.8637 18.658 87.9529 17.6884 88.0178C17.5743 88.0259 17.4765 87.9448 17.4684 87.8312C17.4603 87.7177 17.5417 87.6285 17.6558 87.6123C18.6173 87.5393 19.6358 87.4582 20.6788 87.3528C20.7929 87.3446 20.8907 87.4257 20.8988 87.5312C20.9233 87.6528 20.8418 87.7501 20.7277 87.7583ZM23.7507 87.4339C23.6448 87.442 23.5388 87.369 23.5307 87.2554C23.5144 87.1419 23.5959 87.0446 23.71 87.0284C24.6796 86.9148 25.69 86.7851 26.7248 86.6472C26.8389 86.6229 26.9367 86.7121 26.953 86.8175C26.9693 86.931 26.8878 87.0284 26.7818 87.0446C25.747 87.1906 24.7285 87.3203 23.7507 87.4339C23.7588 87.4339 23.7588 87.4339 23.7507 87.4339ZM14.6573 88.1962C14.6491 88.1962 14.6491 88.1962 14.641 88.1962C13.5654 88.2367 12.5387 88.2611 11.5935 88.253C11.4794 88.253 11.3898 88.1638 11.3898 88.0502C11.3898 87.9367 11.4794 87.8475 11.5935 87.8475C12.5387 87.8556 13.5572 87.8312 14.6247 87.7907C14.7387 87.7826 14.8284 87.8718 14.8365 87.9853C14.8447 88.0908 14.7632 88.1881 14.6573 88.1962ZM29.7885 86.6229C29.6826 86.631 29.5848 86.558 29.5685 86.4526C29.5522 86.339 29.6256 86.2417 29.7397 86.2255C30.7093 86.0795 31.7197 85.9254 32.7464 85.7632C32.8604 85.747 32.9582 85.82 32.9827 85.9335C32.999 86.0471 32.9256 86.1444 32.8115 86.1606C31.7767 86.3228 30.7663 86.4769 29.7967 86.6229C29.7967 86.6229 29.7967 86.6229 29.7885 86.6229ZM35.8101 85.674C35.7042 85.6821 35.6064 85.6091 35.5901 85.5037C35.5738 85.3902 35.6471 85.2928 35.7531 85.2685C36.739 85.0982 37.7412 84.9279 38.7516 84.7495C38.8657 84.7332 38.9635 84.8062 38.9879 84.9117C39.0042 85.0252 38.9309 85.1225 38.825 85.1469C37.8146 85.3253 36.8123 85.5037 35.8264 85.6659C35.8182 85.674 35.8101 85.674 35.8101 85.674ZM8.57866 88.1394C8.57052 88.1394 8.55422 88.1394 8.54607 88.1394C7.41347 88.0502 6.38679 87.9123 5.50678 87.7339C5.40085 87.7096 5.32751 87.6042 5.35196 87.4987C5.3764 87.3933 5.48233 87.3203 5.58826 87.3446C6.45197 87.5231 7.45421 87.6609 8.57052 87.742C8.68459 87.7501 8.76607 87.8475 8.75793 87.961C8.75793 88.0502 8.67644 88.1313 8.57866 88.1394ZM41.7991 84.6035C41.6931 84.6116 41.5954 84.5467 41.5791 84.4413C41.5546 84.3277 41.6279 84.2304 41.742 84.2061C42.728 84.0196 43.722 83.833 44.7324 83.6384C44.8465 83.6141 44.9524 83.6871 44.9687 83.8006C44.9932 83.906 44.9198 84.0196 44.8058 84.0358C43.7954 84.2304 42.8013 84.417 41.8154 84.6035C41.8154 84.6035 41.8072 84.6035 41.7991 84.6035ZM47.7799 83.4519C47.6739 83.46 47.5843 83.3951 47.5599 83.2897C47.5354 83.1842 47.6088 83.0707 47.7228 83.0545C48.7088 82.8598 49.7029 82.6571 50.7051 82.4543C50.811 82.4381 50.9251 82.503 50.9414 82.6084C50.9658 82.7139 50.8925 82.8274 50.7866 82.8436C49.7843 83.0464 48.7903 83.2491 47.8043 83.4438C47.7962 83.4519 47.788 83.4519 47.7799 83.4519ZM53.7444 82.2273C53.6466 82.2354 53.5488 82.1705 53.5244 82.0651C53.4999 81.9596 53.5733 81.8461 53.6792 81.8299C54.6651 81.619 55.6592 81.4082 56.6533 81.1973C56.7592 81.173 56.8733 81.246 56.8978 81.3514C56.9222 81.4568 56.8489 81.5704 56.7429 81.5947C55.7489 81.8056 54.7548 82.0245 53.7688 82.2273C53.7607 82.2273 53.7525 82.2273 53.7444 82.2273ZM2.71193 86.7364C2.67119 86.7445 2.63045 86.7283 2.5897 86.7121C1.96229 86.3471 1.48969 85.9092 1.18821 85.4145C0.968203 85.0495 0.780794 84.6846 0.625977 84.3277C0.585236 84.2223 0.625977 84.1088 0.731904 84.0601C0.837831 84.0196 0.951907 84.0601 1.0008 84.1655C1.14746 84.5062 1.32673 84.8549 1.53858 85.2036C1.80747 85.6416 2.22303 86.0308 2.79341 86.3633C2.89119 86.4201 2.92378 86.5418 2.86674 86.6391C2.83415 86.6959 2.77711 86.7283 2.71193 86.7364ZM59.6926 80.9459C59.5948 80.954 59.497 80.8891 59.4726 80.7918C59.4482 80.6864 59.5215 80.5728 59.6274 80.5485C60.6134 80.3295 61.6074 80.1106 62.6015 79.8916C62.7075 79.8673 62.8215 79.9321 62.846 80.0457C62.8704 80.1511 62.8052 80.2647 62.6912 80.289C61.6971 80.508 60.703 80.735 59.717 80.9459C59.7089 80.9459 59.7008 80.9459 59.6926 80.9459ZM65.6327 79.6159C65.5349 79.624 65.4371 79.5591 65.4127 79.4618C65.3882 79.3563 65.4534 79.2428 65.5675 79.2185C66.5534 78.9914 67.5394 78.7643 68.5253 78.5372C68.6312 78.5129 68.7453 78.5778 68.7698 78.6913C68.7942 78.7968 68.729 78.9103 68.6149 78.9346C67.629 79.1617 66.6431 79.3888 65.6571 79.6159C65.649 79.6159 65.6408 79.6159 65.6327 79.6159ZM71.5483 78.2453C71.4505 78.2534 71.3527 78.1885 71.3283 78.0912C71.3039 77.9858 71.369 77.8722 71.475 77.8479C72.4609 77.6127 73.4468 77.3775 74.4409 77.1423C74.555 77.118 74.6609 77.1829 74.6854 77.2883C74.7098 77.3937 74.6446 77.5073 74.5387 77.5316C73.5528 77.7668 72.5587 78.002 71.5727 78.2372C71.5646 78.2453 71.5564 78.2453 71.5483 78.2453ZM77.4802 76.8341C77.3824 76.8423 77.2847 76.7774 77.2602 76.6801C77.2358 76.5746 77.301 76.4611 77.4069 76.4368C78.3928 76.2016 79.3788 75.9583 80.3647 75.715C80.4706 75.6906 80.5847 75.7555 80.6092 75.861C80.6336 75.9664 80.5684 76.0799 80.4625 76.1043C79.4765 76.3475 78.4906 76.5827 77.5047 76.826C77.4965 76.826 77.4884 76.826 77.4802 76.8341ZM83.3959 75.3825C83.2981 75.3906 83.2003 75.3257 83.1758 75.2284C83.1514 75.123 83.2166 75.0094 83.3225 74.9851C84.3085 74.7418 85.2944 74.4985 86.2722 74.2471C86.3781 74.2227 86.4922 74.2876 86.5166 74.3931C86.5411 74.4985 86.4759 74.612 86.37 74.6364C85.384 74.8797 84.4062 75.1311 83.4203 75.3744C83.4121 75.3825 83.404 75.3825 83.3959 75.3825ZM89.2952 73.9065C89.1974 73.9146 89.0996 73.8497 89.0752 73.7524C89.0507 73.6469 89.1159 73.5334 89.2218 73.5091C90.2078 73.2577 91.1937 73.0063 92.1715 72.763C92.2774 72.7386 92.3915 72.8035 92.416 72.9089C92.4404 73.0144 92.3752 73.1279 92.2693 73.1522C91.2915 73.4036 90.3056 73.6551 89.3196 73.8983C89.3196 73.9065 89.3033 73.9065 89.2952 73.9065ZM95.1945 72.398C95.0967 72.4061 95.0071 72.3493 94.9745 72.2439C94.9501 72.1385 95.0152 72.0249 95.1212 72.0006C96.1071 71.7492 97.093 71.4897 98.0708 71.2383C98.1768 71.2139 98.2908 71.2707 98.3153 71.3843C98.3397 71.4897 98.2827 71.6032 98.1686 71.6276C97.1908 71.879 96.213 72.1385 95.219 72.3899C95.219 72.398 95.2027 72.398 95.1945 72.398ZM0.33264 81.4893C0.316344 81.4893 0.308196 81.4893 0.291899 81.4893C0.185972 81.4812 0.104489 81.3838 0.112638 81.2703C0.210417 80.2971 0.568939 79.3239 1.18821 78.3913C1.25339 78.2939 1.37562 78.2696 1.46525 78.3345C1.55488 78.3994 1.58747 78.521 1.52228 78.6102C0.943759 79.4861 0.601532 80.3944 0.511902 81.3027C0.503753 81.4082 0.430419 81.4812 0.33264 81.4893ZM101.086 70.8652C100.988 70.8733 100.898 70.8166 100.866 70.7192C100.841 70.6138 100.898 70.5003 101.012 70.4759C101.998 70.2164 102.984 69.9569 103.954 69.6974C104.06 69.665 104.174 69.7298 104.198 69.8434C104.231 69.9488 104.166 70.0623 104.052 70.0867C103.082 70.3462 102.096 70.6057 101.11 70.8652C101.11 70.8652 101.094 70.8652 101.086 70.8652ZM106.969 69.3081C106.871 69.3162 106.781 69.2595 106.749 69.1621C106.716 69.0567 106.781 68.9432 106.895 68.9188C107.889 68.6512 108.867 68.3917 109.837 68.1322C109.943 68.0997 110.057 68.1646 110.09 68.2782C110.122 68.3836 110.057 68.4971 109.943 68.5296C108.973 68.7891 107.995 69.0486 107.001 69.3162C106.993 69.3081 106.985 69.3081 106.969 69.3081ZM112.852 67.7348C112.754 67.7429 112.664 67.6861 112.64 67.5888C112.607 67.4834 112.673 67.3698 112.778 67.3374C113.773 67.0698 114.75 66.8021 115.72 66.5426C115.826 66.5102 115.94 66.5751 115.973 66.6805C116.005 66.7859 115.94 66.8995 115.834 66.9319C114.864 67.1914 113.887 67.459 112.893 67.7267C112.876 67.7267 112.86 67.7348 112.852 67.7348ZM118.727 66.129C118.629 66.1371 118.539 66.0804 118.515 65.983C118.482 65.8776 118.547 65.7641 118.653 65.7316C119.647 65.4559 120.625 65.1883 121.587 64.9206C121.693 64.8882 121.807 64.9531 121.839 65.0585C121.872 65.1639 121.807 65.2775 121.701 65.3099C120.739 65.5775 119.761 65.8452 118.767 66.1209C118.751 66.129 118.735 66.129 118.727 66.129ZM124.593 64.507C124.496 64.5151 124.406 64.4584 124.382 64.361C124.349 64.2556 124.414 64.1421 124.52 64.1096C125.522 63.8339 126.5 63.5582 127.453 63.2905C127.559 63.2581 127.673 63.323 127.706 63.4284C127.739 63.5338 127.673 63.6474 127.567 63.6798C126.614 63.9474 125.636 64.2232 124.634 64.4989C124.618 64.507 124.61 64.507 124.593 64.507ZM3.40453 76.4692C3.33934 76.4773 3.27416 76.453 3.23342 76.3962C3.16008 76.3151 3.16823 76.1854 3.25786 76.1124C3.96676 75.5041 4.80603 74.904 5.75122 74.3201C5.849 74.2633 5.97123 74.2876 6.02826 74.3849C6.0853 74.4823 6.06086 74.6039 5.96308 74.6607C5.03418 75.2284 4.21935 75.8204 3.52675 76.4124C3.48601 76.453 3.44527 76.4692 3.40453 76.4692ZM130.46 62.8688C130.362 62.8769 130.273 62.8201 130.248 62.7228C130.216 62.6174 130.281 62.5039 130.387 62.4714C131.397 62.1876 132.375 61.9118 133.32 61.6442C133.426 61.6118 133.54 61.6766 133.573 61.7821C133.605 61.8875 133.54 62.001 133.434 62.0335C132.489 62.3011 131.511 62.5769 130.501 62.8607C130.485 62.8607 130.476 62.8688 130.46 62.8688ZM136.327 61.2063C136.229 61.2144 136.139 61.1576 136.115 61.0603C136.082 60.9549 136.148 60.8413 136.254 60.8089C137.288 60.5169 138.266 60.2331 139.187 59.9654C139.293 59.933 139.407 59.9979 139.439 60.1033C139.472 60.2087 139.407 60.3223 139.301 60.3547C138.38 60.6224 137.402 60.8981 136.368 61.1982C136.351 61.1982 136.335 61.2063 136.327 61.2063ZM8.53792 73.2414C8.45644 73.2495 8.37496 73.209 8.33422 73.1279C8.28533 73.0306 8.32607 72.9089 8.42385 72.8603C9.28756 72.4386 10.2246 72.0168 11.2187 71.6113C11.3246 71.5708 11.4387 71.6195 11.4794 71.7249C11.5202 71.8303 11.4713 71.9439 11.3654 71.9844C10.3794 72.3899 9.45053 72.8035 8.59496 73.2252C8.58681 73.2333 8.56237 73.2333 8.53792 73.2414ZM142.185 59.5194C142.088 59.5275 141.998 59.4707 141.974 59.3734C141.941 59.268 142.006 59.1545 142.112 59.122C143.228 58.7976 144.206 58.5138 145.045 58.2705C145.151 58.238 145.265 58.3029 145.298 58.4083C145.331 58.5138 145.265 58.6273 145.16 58.6597C144.328 58.903 143.342 59.1869 142.226 59.5113C142.21 59.5113 142.194 59.5113 142.185 59.5194ZM148.052 57.8001C147.954 57.8082 147.865 57.7514 147.84 57.6541C147.808 57.5487 147.873 57.4351 147.979 57.4027C148.183 57.3459 148.297 57.3054 148.321 57.3054C148.435 57.2648 148.574 57.3459 148.59 57.4757C148.606 57.646 148.59 57.646 148.101 57.792C148.077 57.792 148.068 57.8001 148.052 57.8001ZM14.1684 70.9139C14.0787 70.922 13.9891 70.8733 13.9565 70.7841C13.9158 70.6787 13.9728 70.5652 14.0787 70.5246C14.9995 70.2002 15.9773 69.8758 16.9795 69.5595C17.0854 69.5271 17.1995 69.5839 17.2321 69.6893C17.2647 69.7947 17.2077 69.9082 17.1017 69.9407C16.0995 70.2489 15.1299 70.5733 14.2173 70.8977C14.201 70.9058 14.1847 70.9139 14.1684 70.9139ZM19.9862 69.0973C19.8884 69.1054 19.7988 69.0486 19.7744 68.9513C19.7418 68.8458 19.8069 68.7323 19.9129 68.6999C20.8662 68.4403 21.8603 68.1727 22.8625 67.9213C22.9766 67.897 23.0825 67.9619 23.107 68.0673C23.1314 68.1727 23.0662 68.2863 22.9603 68.3106C21.9581 68.562 20.964 68.8215 20.0188 69.081C20.0025 69.0891 19.9944 69.0973 19.9862 69.0973ZM25.9018 67.6212C25.8041 67.6294 25.7063 67.5645 25.6818 67.4672C25.6574 67.3617 25.7226 67.2482 25.8366 67.2239C26.8226 67.0049 27.8248 66.794 28.8271 66.5913C28.933 66.5669 29.0471 66.6399 29.0634 66.7454C29.0878 66.8508 29.0145 66.9643 28.9085 66.9806C27.9145 67.1833 26.9122 67.3942 25.9344 67.6131C25.9181 67.6212 25.91 67.6212 25.9018 67.6212ZM31.8826 66.421C31.7767 66.4291 31.6789 66.3642 31.6626 66.2588C31.6463 66.1452 31.7197 66.0479 31.8256 66.0236C33.6834 65.6911 34.8486 65.5208 34.8568 65.5208C34.9708 65.5045 35.0686 65.5775 35.0849 65.6911C35.1012 65.8046 35.0279 65.9019 34.9138 65.9182C34.9056 65.9182 33.7486 66.0885 31.8989 66.4129C31.8908 66.421 31.8826 66.421 31.8826 66.421Z"/><path fill="#013443" d="M155.866 67.6942L179.293 51.1743L156.763 54.7913L158.897 58.4246L154.742 64.061L155.866 67.6942Z"/><path fill="#A9E1D4" stroke="#95D2BB" stroke-miterlimit="10" stroke-width=".25" d="M179.293 51.1743L153.74 58.5462L136.107 73.5658L179.293 51.1743Z"/><path fill="#A9E1D4" stroke="#95D2BB" stroke-miterlimit="10" stroke-width=".25" d="M156.763 54.7913L179.293 51.1743L154.88 46.6489L156.763 54.7913Z"/><path fill="#2E3652" d="M146.243 105H19.0736V103.905H146.243V103.913V105Z"/></g><defs><clipPath id="clip0_1:36"><rect width="179.775" height="104.132" fill="#fff" transform="translate(0.11264 0.868195)"/></clipPath></defs></svg>